<svg width="148" height="152" viewBox="0 0 148 152" fill="none" xmlns="http://www.w3.org/2000/svg">
<path d="M22.0048 10.4404C22.8669 6.10722 27.0788 3.29342 31.412 4.15521L141.261 26.0048C145.594 26.8669 148.408 31.0789 147.546 35.412L125.695 145.261C124.833 149.594 120.622 152.408 116.289 151.546L6.44035 129.695C2.10732 128.833 -0.706557 124.622 0.155195 120.289L22.0048 10.4404ZM68.9394 60.4111C64.6061 59.5493 60.3951 62.3639 59.5331 66.6972L56.4111 82.3896C55.5493 86.7229 58.3639 90.9349 62.6972 91.7968L78.3896 94.9179C82.7229 95.7797 86.9348 92.9651 87.7968 88.6318L90.9179 72.9394C91.7797 68.6061 88.965 64.3951 84.6318 63.5331L68.9394 60.4111Z" fill="url(#paint0_linear_0_1)"/>
<path fill-rule="evenodd" clip-rule="evenodd" d="M31.4124 0.155252C27.079 -0.706712 22.8673 2.10743 22.0054 6.44081L0.155252 116.289C-0.706712 120.622 2.10743 124.834 6.44081 125.696L116.289 147.546C120.622 148.408 124.834 145.594 125.696 141.26L147.546 31.4124C148.408 27.079 145.594 22.8673 141.26 22.0054L31.4124 0.155252ZM68.9397 56.4113C64.6064 55.5493 60.3947 58.3635 59.5327 62.6968L56.4113 78.3894C55.5493 82.7228 58.3635 86.9345 62.6968 87.7964L78.3894 90.9179C82.7228 91.7798 86.9345 88.9657 87.7964 84.6323L90.9179 68.9397C91.7798 64.6064 88.9657 60.3947 84.6323 59.5327L68.9397 56.4113Z" fill="url(#paint1_linear_0_1)"/>
<path fill-rule="evenodd" clip-rule="evenodd" d="M22.0054 6.44081C22.8673 2.10743 27.079 -0.706712 31.4124 0.155252L141.26 22.0054C145.594 22.8673 148.408 27.079 147.546 31.4124L145.593 41.2284C141.319 42.102 137.233 43.3635 133.369 44.9422C132.406 45.3358 131.292 44.9574 130.796 44.0428L121.692 27.2639C121.653 27.192 121.62 27.1171 121.587 27.0422C121.572 27.0078 121.557 26.9733 121.541 26.9392C121.172 26.1403 120.191 25.8055 119.48 26.113C119.193 26.2368 118.922 26.4118 118.671 26.5974C118.009 27.0869 117.799 28.0623 118.2 28.7091C118.241 28.7751 118.286 28.8387 118.331 28.9023C118.392 28.9884 118.453 29.0745 118.504 29.1666L127.426 45.2874C127.978 46.2842 127.585 47.5372 126.581 48.0764C107.769 58.1818 95.7636 76.4471 95.0351 97.1429C94.9963 98.2468 95.8954 99.1429 97 99.1429H134.073L125.696 141.26C124.834 145.594 120.622 148.408 116.289 147.546L6.44081 125.696C2.10743 124.834 -0.706712 120.622 0.155252 116.289L22.0054 6.44081ZM59.5327 62.6968C60.3947 58.3635 64.6064 55.5493 68.9397 56.4113L84.6323 59.5327C88.9657 60.3947 91.7798 64.6064 90.9179 68.9397L87.7964 84.6323C86.9345 88.9657 82.7228 91.7798 78.3894 90.9179L62.6968 87.7964C58.3635 86.9345 55.5493 82.7228 56.4113 78.3894L59.5327 62.6968ZM124.483 70.0372C124.483 72.9477 127 75.4945 129.876 75.4945C132.753 75.4945 135.27 73.3115 135.27 70.0372C135.27 67.1266 132.753 64.5798 129.876 64.5798C127 64.5798 124.483 67.1266 124.483 70.0372Z" fill="url(#paint2_linear_0_1)"/>
<defs>
<linearGradient id="paint0_linear_0_1" x1="73.8506" y1="4" x2="73.8506" y2="151.701" gradientUnits="userSpaceOnUse">
<stop stop-color="#3DDC84"/>
<stop offset="1" stop-color="#76C9D8"/>
</linearGradient>
<linearGradient id="paint1_linear_0_1" x1="73.8506" y1="0" x2="73.8506" y2="147.701" gradientUnits="userSpaceOnUse">
<stop stop-color="#3DDC84"/>
<stop offset="1" stop-color="#76C9D8"/>
</linearGradient>
<linearGradient id="paint2_linear_0_1" x1="73.8506" y1="0" x2="73.8506" y2="147.701" gradientUnits="userSpaceOnUse">
<stop stop-color="#3DDC84"/>
<stop offset="1" stop-color="#98E5F2"/>
</linearGradient>
</defs>
</svg>
