<svg height="231.72127" viewBox="0 0 231.68134 231.72127" width="231.68134" xmlns="http://www.w3.org/2000/svg" xmlns:xlink="http://www.w3.org/1999/xlink"><linearGradient id="a" gradientUnits="userSpaceOnUse" x1="52.518135" x2="93.957085" y1="20.635178" y2="31.823769"><stop offset="0" stop-color="#518630"/><stop offset="1" stop-color="#b6db3f"/></linearGradient><path d="m98.068222 10.832675-38.536009-10.31564612a1.9995558 1.9995558 149.9797 0 0 -2.448717 1.41492422l-4.153385 15.5295489a2.0009309 2.0009309 59.986667 0 0 1.415113 2.44973l11.44118 3.065655a2.0014953 2.0014953 150.02141 0 0 2.450934-1.413826l.04345-.161673a2.0014953 2.0014953 150.02141 0 1 2.450934-1.413826l7.966275 2.134557a1.9999997 1.9999997 60.000002 0 1 1.414214 2.44949l-.04333.161703a1.9999998 1.9999998 60.000004 0 0 1.414214 2.44949l11.395628 3.05345a1.9990698 1.9990698 149.98667 0 0 2.448591-1.414454l4.156147-15.539863a2.0004439 2.0004439 59.979704 0 0 -1.415239-2.44926zm-47.135482 14.095466-4.156148 15.539863a2.0004438 2.0004438 59.979705 0 0 1.415239 2.44926l38.53601 10.315646a1.9995558 1.9995558 149.9797 0 0 2.448717-1.414924l4.153384-15.529549a2.0009311 2.0009311 59.986667 0 0 -1.415113-2.44973l-11.396916-3.053795a2.0000003 2.0000003 150.00001 0 0 -2.44949 1.414214l-.09089.339187a2.0003634 2.0003634 149.9948 0 1 -2.449584 1.414565l-7.976112-2.135643a1.9980028 1.9980028 60.018221 0 1 -1.412729-2.448715l.09174-.341263a1.9983656 1.9983656 60.023422 0 0 -1.412634-2.449066l-11.436883-3.064504a1.9990699 1.9990699 149.98667 0 0 -2.448591 1.414454z" fill="url(#a)" transform="matrix(4.39 .00000001 -.00000001 4.39 -205.34924 -1.971205)"/></svg>