<svg width="64" height="64" viewBox="0 0 64 64" fill="none" xmlns="http://www.w3.org/2000/svg">
<g clip-path="url(#clip0_9_7)">
<path d="M51.183 60.1311C50.5937 62.2602 48.3901 63.5085 46.261 62.9193L3.85508 51.183C1.72618 50.5936 0.477716 48.39 1.06694 46.261L6.48809 26.6731L24.3235 31.6092L23.3399 35.1631C23.0453 36.2277 23.6694 37.3295 24.734 37.6241L34.974 40.4582C36.0386 40.7528 37.1404 40.1286 37.435 39.0641L38.4186 35.5102L56.6041 40.5432L51.183 60.1311ZM60.1311 12.8032C62.2601 13.3924 63.5083 15.5963 62.9193 17.7252L57.471 37.411L39.2855 32.378L40.2691 28.8241C40.5637 27.7595 39.9395 26.6577 38.875 26.363L28.635 23.529C27.5704 23.2344 26.4686 23.8585 26.174 24.9231L25.1904 28.477L7.35498 23.5408L12.8032 3.85508C13.3926 1.72633 15.5964 0.47794 17.7252 1.06694L60.1311 12.8032Z" fill="url(#paint0_linear_9_7)"/>
</g>
<defs>
<linearGradient id="paint0_linear_9_7" x1="38.7396" y1="6.93557" x2="24.8694" y2="57.0516" gradientUnits="userSpaceOnUse">
<stop stop-color="#98E357"/>
<stop offset="1" stop-color="#26A269"/>
</linearGradient>
<clipPath id="clip0_9_7">
<rect width="64" height="64" fill="white"/>
</clipPath>
</defs>
</svg>
