<svg width="76" height="79" viewBox="0 0 76 79" fill="none" xmlns="http://www.w3.org/2000/svg">
<path d="M69.6173 15.5535C72.8525 16.2707 74.8937 19.4748 74.1764 22.7099L62.9216 73.4773C62.2044 76.7125 59.0003 78.7537 55.7652 78.0364L4.99778 66.7816C1.76262 66.0644 -0.27858 62.8603 0.438637 59.6252L11.6935 8.85778C12.4107 5.62262 15.6148 3.58142 18.8499 4.29864L69.6173 15.5535ZM34.374 31.2987C32.2172 30.8205 30.0812 32.1813 29.6031 34.3381L27.4387 44.1011C26.9605 46.2578 28.3213 48.3939 30.4781 48.872L40.2411 51.0364C42.3978 51.5145 44.5339 50.1537 45.012 47.997L47.1764 38.234C47.6545 36.0772 46.2937 33.9412 44.137 33.4631L34.374 31.2987Z" fill="url(#paint0_linear_0_1)"/>
<path d="M63.614 70.3098C62.8968 73.5449 59.6928 75.5861 56.4576 74.8689L5.69024 63.6141C2.45508 62.8968 0.413881 59.6928 1.1311 56.4576L6.32565 33.0265L28.7805 38.0046L27.9147 41.9098C27.5561 43.5274 28.5767 45.1294 30.1943 45.488L41.9098 48.0853C43.5274 48.4439 45.1294 47.4233 45.488 45.8057L46.3538 41.9006L68.8086 46.8787L63.614 70.3098ZM70.3098 12.386C73.5449 13.1032 75.5861 16.3072 74.8689 19.5424L69.6743 42.9735L47.2195 37.9954L48.0853 34.0902C48.4439 32.4726 47.4233 30.8706 45.8057 30.512L34.0902 27.9147C32.4726 27.5561 30.8706 28.5767 30.512 30.1943L29.6462 34.0995L7.19141 29.1214L12.386 5.69025C13.1032 2.45509 16.3072 0.413894 19.5424 1.13111L70.3098 12.386Z" fill="url(#paint1_linear_0_1)"/>
<defs>
<linearGradient id="paint0_linear_0_1" x1="44.2336" y1="9.92607" x2="30.3815" y2="72.409" gradientUnits="userSpaceOnUse">
<stop stop-color="#57E389"/>
<stop offset="1" stop-color="#62A0EA"/>
</linearGradient>
<linearGradient id="paint1_linear_0_1" x1="44.9261" y1="6.75854" x2="31.0739" y2="69.2415" gradientUnits="userSpaceOnUse">
<stop stop-color="#8FF0A4"/>
<stop offset="1" stop-color="#99C1F1"/>
</linearGradient>
</defs>
</svg>
