<svg width="75" height="77" viewBox="0 0 75 77" fill="none" xmlns="http://www.w3.org/2000/svg">
<path d="M68.9357 13.7165C72.1886 14.3488 74.3129 17.4983 73.6806 20.7511L63.7586 71.7957C63.1263 75.0486 59.9768 77.1729 56.724 76.5406L5.67934 66.6186C2.42652 65.9863 0.30215 62.8368 0.934435 59.584L10.8565 8.53934C11.4888 5.28652 14.6383 3.16215 17.8911 3.79444L68.9357 13.7165ZM34.1167 30.3788C31.9481 29.9573 29.8485 31.3736 29.4269 33.5421L27.5188 43.3584C27.0973 45.5269 28.5136 47.6266 30.6821 48.0481L40.4984 49.9562C42.6669 50.3777 44.7666 48.9615 45.1881 46.793L47.0962 36.9767C47.5177 34.8081 46.1015 32.7085 43.933 32.2869L34.1167 30.3788Z" fill="url(#paint0_linear_0_1)"/>
<path d="M64.451 68.6282C63.8187 71.881 60.6692 74.0054 57.4164 73.3731L6.3718 63.451C3.11898 62.8188 0.994611 59.6693 1.6269 56.4164L6.20631 32.8574L28.7837 37.246L28.0205 41.1725C27.7044 42.7989 28.7665 44.3737 30.393 44.6898L42.1725 46.9795C43.7989 47.2956 45.3736 46.2335 45.6898 44.6071L46.453 40.6805L69.0304 45.0692L64.451 68.6282ZM69.6282 10.549C72.881 11.1813 75.0054 14.3308 74.3731 17.5836L69.7937 41.1426L47.2163 36.754L47.9795 32.8275C48.2956 31.2011 47.2335 29.6264 45.607 29.3102L33.8275 27.0205C32.2011 26.7044 30.6263 27.7666 30.3102 29.393L29.547 33.3195L6.96955 28.9309L11.549 5.37182C12.1812 2.11899 15.3308 -0.00537575 18.5836 0.62691L69.6282 10.549Z" fill="url(#paint1_linear_0_1)"/>
<defs>
<linearGradient id="paint0_linear_0_1" x1="43.4134" y1="8.75547" x2="31.2016" y2="71.5796" gradientUnits="userSpaceOnUse">
<stop stop-color="#33D17A"/>
<stop offset="1" stop-color="#3584E4"/>
</linearGradient>
<linearGradient id="paint1_linear_0_1" x1="44.1059" y1="5.58794" x2="31.8941" y2="68.4121" gradientUnits="userSpaceOnUse">
<stop stop-color="#57E389"/>
<stop offset="1" stop-color="#62A0EA"/>
</linearGradient>
</defs>
</svg>
